<svg xmlns="http://www.w3.org/2000/svg" viewBox="0 0 200 200">
<defs></defs>
<g id="PS5">
<path class="cls-1" d="M82.92,14.86v94.21l21.58,6.76v-79c0-3.72,1.68-6.19,4.38-5.34,3.52,1,4.21,4.39,4.21,8.07V71.12c13.43,6.42,24,0,24-17,0-17.32-6.2-25-24.45-31.25-7.2-2.37-20.54-6.37-29.73-8"></path>
<path class="cls-1" d="M108.61,102.06l34.67-12.2c3.93-1.43,4.53-3.39,1.35-4.41s-9-.75-12.94.66l-23.08,8V81.32l1.32-.43A79.24,79.24,0,0,1,126,77.54,69.68,69.68,0,0,1,155.92,81c10.18,3.2,11.33,7.86,8.75,11.1s-8.95,5.54-8.95,5.54L108.61,114.4Z"></path>
<path class="cls-1" d="M43.36,100.76c-10.44-2.88-12.18-9-7.42-12.45,4.4-3.21,11.88-5.62,11.88-5.62L78.75,71.8V84.2L56.51,92.07c-3.94,1.39-4.53,3.35-1.36,4.38s9,.78,12.9-.66L78.75,92v11.07l-2.16.35A70.08,70.08,0,0,1,43.36,100.76Z"></path>
<path class="cls-1" d="M157.35,105.73a5.05,5.05,0,1,1-5.13,5A4.92,4.92,0,0,1,157.35,105.73Zm0,9.36a4.3,4.3,0,1,0-4.31-4.31A4.17,4.17,0,0,0,157.35,115.09Zm-2-7.24h2.34c1.08,0,1.88.31,1.88,1.51a1.36,1.36,0,0,1-1.09,1.42v0c.39.09.65.38.84,1s.41,1.28.58,1.83H158.8c-.15-.43-.34-1.18-.46-1.59-.17-.67-.36-.88-1.25-.88h-.7v2.47h-1.06Zm1.06,2.62h.94c.75,0,1.2-.29,1.2-1s-.55-.92-1.13-.92h-1Z"></path>
<path class="cls-1" d="M89.14,172.37a9.08,9.08,0,0,0,9.14-9V147.81a5.47,5.47,0,0,1,5.51-5.44h17.72a.24.24,0,0,0,.24-.24V139a.23.23,0,0,0-.24-.23H100.16a9.08,9.08,0,0,0-9.14,9v15.53a5.47,5.47,0,0,1-5.51,5.44H68a.24.24,0,0,0-.24.24v3.11a.24.24,0,0,0,.24.24Z"></path>
<path class="cls-1" d="M129.06,151.4V139a.23.23,0,0,1,.24-.23h48.26a.24.24,0,0,1,.25.23v3.11a.25.25,0,0,1-.25.24h-41a.24.24,0,0,0-.24.24v8.06a2.59,2.59,0,0,0,2.61,2.58h30.53a9.56,9.56,0,1,1,0,19.12H129.3a.24.24,0,0,1-.24-.24V169a.24.24,0,0,1,.24-.24h36.53a6,6,0,1,0-.05-11.94H134.57A5.48,5.48,0,0,1,129.06,151.4Z"></path>
<path class="cls-1" d="M57.41,153.25a5.44,5.44,0,1,0,0-10.88h-37a.24.24,0,0,1-.24-.24V139a.23.23,0,0,1,.24-.23H61a9,9,0,1,1,0,18.05H32.91a5.48,5.48,0,0,0-5.51,5.44v9.85a.24.24,0,0,1-.24.24H20.38a.24.24,0,0,1-.24-.24v-9.85a9.08,9.08,0,0,1,9.14-9Z"></path>
<path class="cls-1" d="M187.18,169H186v-.38h2.71V169h-1.11v3.35h-.46Z"></path>
<path class="cls-1" d="M191.12,172h0l1.06-3.31H193v3.73h-.45V169h0l-1.12,3.39h-.57L189.74,169h0v3.39h-.43v-3.73h.78Z"></path>
</g>
</svg>