<svg xmlns="http://www.w3.org/2000/svg" viewBox="0 0 200 200">
<defs></defs>
<g id="SWITCH">
<path class="cls-1" d="M63.19,50.28a9.5,9.5,0,1,0,9.5-9.49A9.5,9.5,0,0,0,63.19,50.28Zm24.47,86.06H77V139h4v9.93h2.71V139h3.94Zm-28.41,4.17,6.26,8.43H68v-12.6H65.44v8.28l-6.2-8.28H56.7v12.6h2.55Zm27.63,38.66h5.3V155.39h-5.3ZM33.59,164.75l-.14,0c-2.91-.51-5.42-.95-5.65-2.66a1.71,1.71,0,0,1,.44-1.33c.8-.91,2.6-1.38,5.34-1.38A20.53,20.53,0,0,1,40.86,161l1.69-4.12a26.81,26.81,0,0,0-9.21-1.83c-5.14,0-10.61,2.51-10.61,7.15,0,3.77,2.66,5.69,9.48,6.87,4.81.82,7.45,1.28,7.38,3.35,0,1.14-.92,3.05-6.34,3.05a16.73,16.73,0,0,1-8.5-2.23l-2.25,4.07a23.35,23.35,0,0,0,10.41,2.52c7.56,0,11.56-2.63,11.56-7.58C44.47,168.71,42.69,166.35,33.59,164.75ZM107,121h15.53a25.89,25.89,0,0,0,25.89-25.89V45.88A25.89,25.89,0,0,0,122.54,20H106.93a.65.65,0,0,0-.66.66v99.55A.74.74,0,0,0,107,121Zm19.23-55.63A10.21,10.21,0,1,1,116,75.52,10.21,10.21,0,0,1,126.24,65.32Zm-55,107.32-5-17.25H62l-5,17.19-4.58-17.19H47.18l6.73,23.78h5.72l4.43-15.67,4.41,15.67h5.74L81,155.39H75.8ZM26.13,140.51l6.26,8.43h2.49v-12.6H32.32v8.28l-6.2-8.28H23.57v12.6h2.56Zm21.06-4.17H44.38v12.6h2.81Zm119.34,28.42H155.42v-9.37H150.5v23.78h4.92v-9.48h11.11v9.48h4.92V155.39h-4.92Zm6.71,12h1v2.46h.59v-2.46h1v-.58h-2.56Zm-28.92-40.37h-5.21v12.6h5.21a6.3,6.3,0,1,0,0-12.6Zm.13,9.95H141.7V139h2.75a3.66,3.66,0,0,1,0,7.31Zm21.22-10.38a6.73,6.73,0,1,0,6.72,6.73A6.73,6.73,0,0,0,165.67,135.91Zm0,10.65a3.93,3.93,0,1,1,3.92-3.92A3.93,3.93,0,0,1,165.67,146.56ZM95.43,20H73.36A25.88,25.88,0,0,0,47.48,45.88V95.06A25.89,25.89,0,0,0,73.36,121H95.43a.74.74,0,0,0,.74-.74V20.74A.74.74,0,0,0,95.43,20ZM88,112.81H73.36A17.74,17.74,0,0,1,55.62,95.06V45.88A17.74,17.74,0,0,1,73.36,28.14H88Zm91.15,63.29h-.55l-.76,2.22-.77-2.22h-.84v3h.54V176.8l.79,2.31v0h.53v0l.79-2.31v2.34h.55v-3ZM98,160.44h7.6v18.73h5.12V160.44h7.43v-5.05H98Zm36.68-.54a7.62,7.62,0,0,1,6.53,3.69l3.87-3.36a12.7,12.7,0,1,0,0,14.15L141.19,171a7.62,7.62,0,0,1-6.53,3.69,7.41,7.41,0,1,1,0-14.81Zm-28-13.29H99.45v-3h6.7v-2.28h-6.7v-2.72h7.24v-2.31h-9.8v12.6h9.8Zm21.75,2.33v-12.6h-2.55v8.28l-6.2-8.28h-2.55v12.6h2.56v-8.43l6.26,8.43Z"></path>
</g>
</svg>