<svg xmlns="http://www.w3.org/2000/svg" width="32" height="32" viewBox="0 0 8.467 8.467"><g transform="matrix(.26458 0 0 .26458 81.65 -458.36)"><path fill="#9ee8d9" d="m -279.10531,1748.3857 a 12.375,12.375 0 0 1 -12.375,12.375 12.375,12.375 0 0 1 -12.375,-12.375 12.375,12.375 0 0 1 12.375,-12.375 12.375,12.375 0 0 1 12.375,12.375 z"/><g stroke="#3a3640" transform="translate(-308.59 707.558)"><path fill="none" stroke-linecap="round" stroke-linejoin="round" d="m 5.5000002,1033.8622 19.0000018,0 a 0.99999677,0.99999677 45.000072 0 1 0.999996,1 l -9e-6,3.7463"/><path fill="none" stroke-linecap="round" stroke-linejoin="round" d="m 25.499989,1046.1085 1.2e-5,3.2537 c 4e-6,1.1046 -0.895431,2 -2,2 l -18.5000009,0 c -1.1045695,0 -2,-0.8954 -2,-2 l 0,-16 c 0,-1.1046 0.8954305,-2 2,-2 l 21.0000019,0 c 1.104569,0 1.999999,0.8954 1.999999,2 l 0,15.0388 c -1.3e-5,0.5891 -0.332856,1.1276 -0.859768,1.3911"/><path fill="none" stroke-linejoin="round" d="m 28.000001,1039.3622 -2.5,1 -5,0 a 2,2 135 0 0 -2,2 l 0,0 a 2,2 45 0 0 2,2 l 5,0 2.5,-1"/><path fill="#3a3640" stroke="none" d="m 21,1042.3622 a 0.5,0.5 0 0 1 -0.5,0.5 0.5,0.5 0 0 1 -0.5,-0.5 0.5,0.5 0 0 1 0.5,-0.5 0.5,0.5 0 0 1 0.5,0.5 z"/></g></g></svg>