<svg xmlns="http://www.w3.org/2000/svg" viewBox="0 0 200 200">
<defs></defs>
<g id="XBOX">
<path class="cls-1" d="M102.71,13.59c1.66.21,3.33.38,5,.65a42.19,42.19,0,0,1,14.92,5.64,4.37,4.37,0,0,1,.39.31c-.11.07-.18.15-.24.14-3.9-.7-7.64.07-11.33,1.23a53.51,53.51,0,0,0-10.6,4.66,1.34,1.34,0,0,1-1.53,0A50,50,0,0,0,84.55,20.5a18.62,18.62,0,0,0-6.86-.22.74.74,0,0,1-.54-.11,4.49,4.49,0,0,1,.51-.38,42.49,42.49,0,0,1,19-6.07,4.42,4.42,0,0,0,.71-.13Z"></path>
<path class="cls-1" d="M100.14,48.74c1.83,1.54,3.68,3,5.45,4.62A121.76,121.76,0,0,1,125,75a34.57,34.57,0,0,1,4.44,8.44,9.17,9.17,0,0,1,.56,4.78,4.25,4.25,0,0,1-1.46,2.54,42.47,42.47,0,0,1-22.72,10.13A43.09,43.09,0,0,1,71.5,90.7,4.72,4.72,0,0,1,70,86.37a18.2,18.2,0,0,1,2.42-7,74.69,74.69,0,0,1,9.92-13.71A126.34,126.34,0,0,1,99.48,49.23Z"></path>
<path class="cls-1" d="M65.19,84.08c-1.19-1.92-2.48-3.79-3.57-5.77a44,44,0,0,1,6.85-51.39,3,3,0,0,1,2.92-.9,16.13,16.13,0,0,1,5.81,2.6,68.71,68.71,0,0,1,10.89,9.17c-1.79,2.32-3.61,4.57-5.32,6.89C77.19,52.28,72,60.14,68.21,68.79A35.53,35.53,0,0,0,65.12,79a11.78,11.78,0,0,0,.35,5Z"></path>
<path class="cls-1" d="M134.72,83.84c.11-.76.27-1.49.31-2.23a23.66,23.66,0,0,0-1.88-9.72,98.9,98.9,0,0,0-10.33-19.43,151.81,151.81,0,0,0-10.35-14.13c-.15-.18-.3-.38-.51-.65,1.55-1.43,3.06-2.89,4.64-4.27A41.53,41.53,0,0,1,125.73,27a7.86,7.86,0,0,1,4-1,2.49,2.49,0,0,1,1.48.64A42.54,42.54,0,0,1,143.49,52a43.26,43.26,0,0,1-8.2,31.31,4.91,4.91,0,0,1-.39.51S134.81,83.81,134.72,83.84Z"></path>
<path class="cls-1" d="M101.9,176.32H88.84c-.27,0-.38-.16-.51-.33l-7.77-10.68L43.82,114.85l-.27-.38c.07-.15.19-.1.28-.1,4.21,0,8.43,0,12.65,0a.64.64,0,0,1,.56.33q12.34,17,24.71,33.95l19.8,27.2Z"></path>
<path class="cls-1" d="M150,149.78l1.11-1.53c1.7-2.34,3.41-4.67,5.09-7a.59.59,0,0,1,.75-.25,38.62,38.62,0,0,1,9.47,3.54A14.43,14.43,0,0,1,174,154.63c1.13,5.83.23,11.28-3.87,15.89a19,19,0,0,1-7.09,4.85,31.65,31.65,0,0,1-9,2.11,49.19,49.19,0,0,1-7.58.15,31.28,31.28,0,0,1-13.79-3.56,18.81,18.81,0,0,1-7.62-7.69.68.68,0,0,1,0-.85c2.07-2.8,4.11-5.63,6.17-8.45.18.1.23.3.32.45a27.13,27.13,0,0,0,4.76,6.35,15.27,15.27,0,0,0,7.93,3.91,33.11,33.11,0,0,0,7.44.42,13.9,13.9,0,0,0,7.18-2.29,7.4,7.4,0,0,0,3.29-6.34,6.79,6.79,0,0,0-1.48-4.71,6.41,6.41,0,0,0-1.46-1.29A27,27,0,0,0,150,149.78Z"></path>
<path class="cls-1" d="M144.9,138.41,143.77,140l-5.07,7c-.12.16-.19.31-.47.22a24.85,24.85,0,0,1-8.76-4.62,14.43,14.43,0,0,1-5-9.34,17.8,17.8,0,0,1,.48-7.68,15.67,15.67,0,0,1,7.21-9,24.56,24.56,0,0,1,9.34-3.14,45.26,45.26,0,0,1,10.66-.16,27.24,27.24,0,0,1,11.47,3.39,17.7,17.7,0,0,1,5.92,5.69c.11.17.2.3,0,.52-1.94,2.65-3.86,5.31-5.8,8a.45.45,0,0,1-.1.09c-.67-.87-1.32-1.76-2-2.62a15.25,15.25,0,0,0-9.87-5.44,26.8,26.8,0,0,0-6.87-.26,12.55,12.55,0,0,0-5.75,2,6.22,6.22,0,0,0-2.85,5.08,7.22,7.22,0,0,0,1.52,5.18,9.39,9.39,0,0,0,3.37,2.34A18,18,0,0,0,144.9,138.41Z"></path>
<path class="cls-1" d="M58.43,153.24l4.29,5.89c.72,1,1.44,2,2.18,3a.41.41,0,0,1,0,.57q-4.89,6.67-9.74,13.37a.52.52,0,0,1-.45.28H41.8l-.14,0Z"></path>
<path class="cls-1" d="M100,114.37a.8.8,0,0,1-.22.42L85.4,134.51c-.3.41-.3.41-.59,0q-3.06-4.2-6.13-8.41a.5.5,0,0,1,0-.71q3.9-5.33,7.77-10.67a.78.78,0,0,1,.71-.37c4.13,0,8.26,0,12.39,0Z"></path>
<path class="cls-1" d="M111.11,145.38q0-15.25,0-30.51c0-.39.08-.53.49-.51.64,0,1.28,0,1.92,0,.22,0,.33.06.3.29a2.25,2.25,0,0,0,0,.26q0,30.44,0,60.86c0,.46-.12.59-.57.56-.62,0-1.25,0-1.88,0-.2,0-.3-.05-.27-.26s0-.21,0-.31Z"></path>
<path class="cls-1" d="M32.46,146.07a2.07,2.07,0,0,1,2.1-1.36l1.43-.07a2.9,2.9,0,0,0,1.28-.31c0,.63,0,1.22,0,1.8,0,.18-.11.23-.23.27a3.23,3.23,0,0,1-1,.19,7.59,7.59,0,0,0-1.65.1,1.21,1.21,0,0,0-1,1.2c0,.84,0,1.68,0,2.52,0,.29.18.25.35.25,1.06,0,2.12,0,3.18,0,.31,0,.44.06.41.4a7.23,7.23,0,0,0,0,1.14c0,.33-.09.41-.41.41-2.15,0-4.3,0-6.45,0H27.58c-.28,0-.37-.06-.37-.36,0-1.43,0-2.87,0-4.31a4.82,4.82,0,0,1,.21-1.41,2.57,2.57,0,0,1,2.23-2A2.46,2.46,0,0,1,32.46,146.07Zm-.65,3.05V148a1.5,1.5,0,1,0-3,0c0,.77,0,1.54,0,2.31,0,.23,0,.34.3.33h2.4c.22,0,.31-.06.3-.29C31.8,150,31.81,149.54,31.81,149.12Z"></path>
<path class="cls-1" d="M32.27,164.12H27.64c-.31,0-.42-.05-.42-.39,0-2.23,0-4.45,0-6.67,0-.3.09-.38.37-.35.44,0,1-.19,1.29.09s.07.83.07,1.26c0,1.25,0,2.5,0,3.75,0,.3.07.41.38.39q.81,0,1.62,0c.31,0,.39-.09.38-.39,0-1.39,0-2.79,0-4.18,0-.34.09-.43.41-.4s.93-.16,1.18.07.08.77.08,1.18c0,1.11,0,2.23,0,3.35,0,.28.06.39.36.37.62,0,1.25,0,1.87,0,.28,0,.34-.08.34-.34,0-1.58,0-3.17,0-4.75,0-.33.08-.44.41-.41a7.21,7.21,0,0,0,1,0c.22,0,.31,0,.31.28,0,2.28,0,4.56,0,6.85,0,.29-.15.28-.36.28Z"></path>
<path class="cls-1" d="M32.24,133.7c-1.54,0-3.08,0-4.62,0-.34,0-.4-.1-.4-.42q0-3.3,0-6.62c0-.3.07-.42.38-.39a5.57,5.57,0,0,0,1,0c.31,0,.36.11.36.37,0,1.57,0,3.14,0,4.71,0,.36.11.44.44.42.52,0,1.05,0,1.57,0,.29,0,.39-.06.39-.38,0-1.39,0-2.78,0-4.18,0-.31.06-.45.4-.41s.93-.12,1.18.08.08.76.09,1.16q0,1.68,0,3.36c0,.26,0,.39.34.37.63,0,1.26,0,1.88,0,.31,0,.35-.1.35-.37,0-1.58,0-3.17,0-4.75,0-.31.09-.4.39-.38s1-.14,1.26.08.09.84.1,1.29c0,1.86,0,3.72,0,5.57,0,.37-.06.5-.46.49C35.3,133.68,33.77,133.7,32.24,133.7Z"></path>
<path class="cls-1" d="M33.92,121.47v-.13c0-.69,0-.69.64-.87a1.57,1.57,0,0,0,1.11-1,3.57,3.57,0,0,0,0-2.63,1.2,1.2,0,0,0-1.18-.8,1.09,1.09,0,0,0-1.09.77,9.66,9.66,0,0,0-.58,2.31,5.06,5.06,0,0,1-.78,1.87,2.65,2.65,0,0,1-4.55-.24,5.16,5.16,0,0,1,.14-5A2.82,2.82,0,0,1,30,114.37c.18,0,.26,0,.26.23,0,.46,0,.93,0,1.39,0,.18-.05.25-.24.27a1.45,1.45,0,0,0-1.31,1.16,3.07,3.07,0,0,0,.12,2.17,1,1,0,0,0,.93.61,1.08,1.08,0,0,0,1.05-.56,7.33,7.33,0,0,0,.65-2.38,5.8,5.8,0,0,1,.81-2.09,2.75,2.75,0,0,1,4.53.17,5.63,5.63,0,0,1-.11,5.77,2.91,2.91,0,0,1-2.51,1.33c-.18,0-.23-.07-.23-.23S33.92,121.72,33.92,121.47Z"></path>
<path class="cls-1" d="M30.22,169.21v.09c0,.48.1.92-.62,1a1.08,1.08,0,0,0-.81.74,3.06,3.06,0,0,0,0,2.53,1,1,0,0,0,1,.56,1.05,1.05,0,0,0,1-.53,7.34,7.34,0,0,0,.67-2.42,5.8,5.8,0,0,1,.81-2.09,2.75,2.75,0,0,1,4.55.19,5.67,5.67,0,0,1-.13,5.74,2.91,2.91,0,0,1-2.51,1.33c-.18,0-.23-.08-.22-.23,0-.48,0-1,0-1.44,0-.17.07-.21.23-.23a1.68,1.68,0,0,0,1.67-1.49,3.39,3.39,0,0,0-.15-2.22A1.2,1.2,0,0,0,34.5,170a1.08,1.08,0,0,0-1.06.74,10.4,10.4,0,0,0-.59,2.32,4.87,4.87,0,0,1-.72,1.8,2.64,2.64,0,0,1-4.65-.25,5.07,5.07,0,0,1,.24-5A2.83,2.83,0,0,1,30,168.26c.18,0,.24,0,.24.21S30.22,169,30.22,169.21Z"></path>
<path class="cls-1" d="M32.28,138.36H36.9c.3,0,.41.07.39.38s0,.84,0,1.26c0,.23-.07.3-.3.3q-4.73,0-9.46,0c-.22,0-.3-.07-.3-.3a10.59,10.59,0,0,0,0-1.26c0-.32.1-.39.39-.38Z"></path>
</g>
</svg>